<svg width="478" height="94" viewBox="0 0 478 94" fill="none" xmlns="http://www.w3.org/2000/svg">
<path d="M452.942 67.4912L446.764 50.5141L444.856 44.7378L445.057 52.925V67.4912H436.367V28.3132H447.618L453.746 44.989L456.81 54.03L459.874 44.989L465.952 28.3132H476.952V67.4912H468.463V52.925L468.614 44.7378L466.755 50.5141L460.527 67.4912H452.942Z" fill="#38383B"/>
<path d="M408.654 59.8564C415.184 59.8564 420.257 55.5871 420.257 47.9022C420.257 40.2172 415.184 35.9479 408.654 35.9479C402.124 35.9479 397.051 40.2172 397.051 47.9022C397.051 55.5871 402.124 59.8564 408.654 59.8564ZM408.654 27.5095C420.307 27.5095 429.398 35.4456 429.398 47.9022C429.398 60.3587 420.307 68.2948 408.654 68.2948C397.001 68.2948 387.91 60.3587 387.91 47.9022C387.91 35.4456 397.001 27.5095 408.654 27.5095Z" fill="#38383B"/>
<path d="M360.917 59.8564C367.447 59.8564 372.52 55.5871 372.52 47.9022C372.52 40.2172 367.447 35.9479 360.917 35.9479C354.387 35.9479 349.314 40.2172 349.314 47.9022C349.314 55.5871 354.387 59.8564 360.917 59.8564ZM360.917 27.5095C372.57 27.5095 381.661 35.4456 381.661 47.9022C381.661 60.3587 372.57 68.2948 360.917 68.2948C349.264 68.2948 340.173 60.3587 340.173 47.9022C340.173 35.4456 349.264 27.5095 360.917 27.5095Z" fill="#38383B"/>
<path d="M319.613 28.3132V59.2035H337.645V67.4912H310.773V28.3132H319.613Z" fill="#38383B"/>
<path d="M279.868 53.3268V67.4912H271.028V28.3132H290.631C298.316 28.3132 302.535 34.2402 302.535 40.82C302.535 45.9935 299.773 50.9661 294.75 52.6739L303.741 67.4912H293.394L285.307 53.3268H279.868ZM279.868 45.0392H289.275C292.339 45.0392 293.595 42.8794 293.595 40.82C293.595 38.61 292.339 36.5506 289.275 36.5506H279.868V45.0392Z" fill="#38383B"/>
<path d="M233.347 28.3132H262.228V36.5506H242.187V43.2812H260.219V51.4684H242.187V59.2035H263.233V67.4912H233.347V28.3132Z" fill="#38383B"/>
<path d="M214.922 36.5506V67.4912H206.082V36.5506H194.479V28.3132H226.525V36.5506H214.922Z" fill="#38383B"/>
<path d="M160.959 28.4583L179.192 51.5632L178.991 43.0244V28.4583H187.63V67.6362H180.046L161.763 44.5313L162.014 53.07V67.6362H153.375V28.4583H160.959Z" fill="#38383B"/>
<path d="M134.309 32.7285V67.1619H125.469V32.7285H134.309Z" fill="#38383B"/>
<rect x="115.031" y="28.4583" width="29.4164" height="8.54025" fill="#38383B"/>
<rect x="115.031" y="58.9126" width="29.4164" height="8.54025" fill="#38383B"/>
<path d="M52.9759 76.2205C50.8662 67.6018 47.7165 55.3823 47.7165 46.9713C47.7165 38.5603 50.8663 26.3408 52.9759 17.7222C53.5968 15.1859 54.2413 12.5526 54.9029 9.65481C55.1494 8.5752 56.3387 7.99975 57.332 8.48868L64.3789 11.9576C65.307 12.4144 65.6225 13.5902 65.1557 14.5136C63.5283 17.7334 62.1974 22.3864 60.9901 26.6072C59.9164 30.3611 58.9404 33.7732 57.9406 35.531C56.1723 38.6402 55.8129 42.654 55.575 45.3104C55.5174 45.9546 55.4668 46.519 55.4051 46.9713C55.4668 47.4236 55.5174 47.988 55.575 48.6323C55.8129 51.2886 56.1723 55.3024 57.9406 58.4116C58.9404 60.1694 59.9163 63.5814 60.9901 67.3353C62.1974 71.5561 63.5283 76.2092 65.1557 79.429C65.6225 80.3525 65.307 81.5282 64.3789 81.9851L57.332 85.4539C56.3387 85.9429 55.1493 85.3674 54.9029 84.2878C54.2413 81.3899 53.5968 78.7567 52.9759 76.2205Z" fill="#38383B"/>
<path d="M58.9719 47.1421C59.1178 50.6235 61.4621 54.2355 64.2577 57.2163C67.1123 60.2602 69.8932 61.6571 73.4078 63.4226C75.1441 64.2948 77.0595 65.257 79.2513 66.5521C79.9199 66.9472 80.7888 66.7265 81.1701 66.0498L85.1307 59.0203C85.4854 58.3907 85.2895 57.5926 84.6592 57.2392C83.0104 56.3145 80.9343 55.3759 78.8126 54.4167C73.6615 52.0879 68.2421 49.6378 68.0182 46.9713C68.2421 44.3049 73.6615 41.8548 78.8126 39.526C80.9343 38.5668 83.0104 37.6282 84.6592 36.7035C85.2895 36.35 85.4854 35.5519 85.1307 34.9223L81.1701 27.8928C80.7888 27.2161 79.9199 26.9955 79.2513 27.3905C77.0595 28.6856 75.1442 29.6478 73.4079 30.52C69.8932 32.2855 67.1123 33.6825 64.2577 36.7263C61.4621 39.7071 59.1178 43.3191 58.9719 46.8006L58.9647 46.8006C58.9647 46.8574 58.9653 46.9144 58.9665 46.9713C58.9653 47.0283 58.9647 47.0852 58.9647 47.1421L58.9719 47.1421Z" fill="#38383B"/>
<path d="M44.6102 46.9713C44.6102 55.3823 41.4605 67.6018 39.3508 76.2205C38.7299 78.7567 38.0854 81.3899 37.4238 84.2878C37.1773 85.3674 35.988 85.9429 34.9947 85.4539L27.9478 81.9851C27.0197 81.5282 26.7042 80.3525 27.171 79.429C28.7984 76.2093 30.1293 71.5562 31.3366 67.3354C32.4103 63.5815 33.3863 60.1695 34.3861 58.4116C36.1544 55.3024 36.5138 51.2886 36.7517 48.6322L36.7517 48.632C36.8094 47.9879 36.8599 47.4235 36.9216 46.9713C36.8599 46.519 36.8093 45.9546 36.7517 45.3104C36.5138 42.6541 36.1544 38.6402 34.3861 35.531C33.3863 33.7732 32.4103 30.3611 31.3366 26.6072C30.1293 22.3864 28.7984 17.7334 27.171 14.5136C26.7042 13.5902 27.0197 12.4144 27.9478 11.9576L34.9947 8.48867C35.988 7.99974 37.1774 8.5752 37.4238 9.65481C38.0854 12.5526 38.7299 15.1858 39.3507 17.722C41.4604 26.3407 44.6102 38.5603 44.6102 46.9713Z" fill="#38383B"/>
<path d="M33.3548 47.1421C33.2089 50.6235 30.8646 54.2355 28.069 57.2163C25.2144 60.2602 22.4335 61.6571 18.9188 63.4226C17.1826 64.2948 15.2672 65.257 13.0753 66.5521C12.4067 66.9472 11.5379 66.7265 11.1566 66.0498L7.19603 59.0203C6.84129 58.3907 7.03723 57.5926 7.66745 57.2391C9.31629 56.3145 11.3924 55.3759 13.5141 54.4167C18.6652 52.0879 24.0846 49.6378 24.3085 46.9713C24.0846 44.3049 18.6652 41.8547 13.5141 39.5259C11.3924 38.5668 9.31628 37.6281 7.66745 36.7035C7.03724 36.35 6.84129 35.5519 7.19603 34.9223L11.1566 27.8928C11.5379 27.2161 12.4068 26.9955 13.0754 27.3905C15.2672 28.6856 17.1826 29.6478 18.9188 30.52C22.4335 32.2855 25.2144 33.6824 28.069 36.7263C30.8646 39.7071 33.2089 43.3191 33.3548 46.8006L33.362 46.8006C33.362 46.8574 33.3614 46.9144 33.3602 46.9713C33.3614 47.0283 33.362 47.0852 33.362 47.1421L33.3548 47.1421Z" fill="#38383B"/>
</svg>
